HIERARCHY
ROOT hip
{
	OFFSET 0.000000 0.000000 0.000000 
	CHANNELS 6 Xposition Yposition Zposition Xrotation Zrotation Yrotation
	JOINT abdomen
	{
		OFFSET 0.000000 3.402643 0.000000 
		CHANNELS 3 Xrotation Zrotation Yrotation
		JOINT chest
		{
			OFFSET 0.000000 8.438565 -0.680529 
			CHANNELS 3 Xrotation Zrotation Yrotation
			JOINT neck
			{
				OFFSET 0.000000 10.207942 -0.272212 
				CHANNELS 3 Xrotation Zrotation Yrotation
				JOINT head
				{
					OFFSET 0.000000 3.130431 0.000000 
					CHANNELS 3 Xrotation Zrotation Yrotation
					End Site
					{
						OFFSET 0.000000 3.130435 0.000000 
					}
				}
			}
			JOINT lCollar
			{
				OFFSET 3.470700 6.669187 -0.816635 
				CHANNELS 3 Yrotation Zrotation Xrotation
				JOINT lShldr
				{
					OFFSET 3.198488 0.000000 0.000000 
					CHANNELS 3 Zrotation Yrotation Xrotation
					JOINT lForeArm
					{
						OFFSET 10.139888 0.000000 0.000000 
						CHANNELS 3 Yrotation Zrotation Xrotation
						JOINT lHand
						{
							OFFSET 8.370511 0.000000 0.000000 
							CHANNELS 3 Zrotation Yrotation Xrotation
							End Site
							{
								OFFSET 4.083176 0.000000 0.000000 
							}
						}
					}
				}
			}
			JOINT rCollar
			{
				OFFSET -3.470700 6.669187 -0.816635 
				CHANNELS 3 Yrotation Zrotation Xrotation
				JOINT rShldr
				{
					OFFSET -3.198488 0.000000 0.000000 
					CHANNELS 3 Zrotation Yrotation Xrotation
					JOINT rForeArm
					{
						OFFSET -10.139888 0.000000 0.000000 
						CHANNELS 3 Yrotation Zrotation Xrotation
						JOINT rHand
						{
							OFFSET -8.370511 0.000000 0.000000 
							CHANNELS 3 Zrotation Yrotation Xrotation
							End Site
							{
								OFFSET -4.083176 0.000000 0.000000 
							}
						}
					}
				}
			}
		}
	}
	JOINT lThigh
	{
		OFFSET 5.308129 -1.633274 1.361059 
		CHANNELS 3 Xrotation Zrotation Yrotation
		JOINT lShin
		{
			OFFSET -2.041588 -20.007561 0.000000 
			CHANNELS 3 Xrotation Zrotation Yrotation
			JOINT lFoot
			{
				OFFSET 0.000000 -19.190928 -1.224953 
				CHANNELS 3 Xrotation Yrotation Zrotation
				End Site
				{
					OFFSET 0.000000 -2.449906 4.627600 
				}
			}
		}
	}
	JOINT rThigh
	{
		OFFSET -5.308129 -1.633274 1.361059 
		CHANNELS 3 Xrotation Zrotation Yrotation
		JOINT rShin
		{
			OFFSET 2.041588 -20.007561 0.000000 
			CHANNELS 3 Xrotation Zrotation Yrotation
			JOINT rFoot
			{
				OFFSET 0.000000 -19.190928 -1.224953 
				CHANNELS 3 Xrotation Yrotation Zrotation
				End Site
				{
					OFFSET 0.000000 -2.449906 4.627600 
				}
			}
		}
	}
}
MOTION
Frames: 11
Frame Time: 0.033333
2.454028 49.015228 13.056324 -10.352283 -2.565034 -8.301166 0.000000 0.000000 0.000000 -1.495412 -2.362477 0.061604 -1.325521 0.172589 -6.028627 16.289423 -0.551640 -3.404614 -4.380116 -16.571131 -7.519225 -51.249954 22.726858 19.775892 -47.450798 -9.472616 3.420892 -6.978176 10.872533 20.351006 5.721289 17.147026 -7.728448 40.922558 -2.716573 6.064808 107.112206 -5.131269 3.561665 -24.567598 15.767017 27.282557 9.752586 4.393728 4.516259 19.693657 -4.230189 21.424824 -17.532684 0.679403 -4.396103 14.819808 -13.580812 -11.847916 3.335383 4.188741 -4.616831 -3.505983 -0.354042 11.240431 
2.460069 49.058514 13.156332 -10.623993 -2.313216 -8.101727 0.000000 0.000000 0.000000 -1.397942 -2.616410 0.366495 -1.279630 -0.293985 -5.665262 16.132818 0.058089 -3.908328 -3.720449 -16.759668 -7.407927 -51.013008 22.373802 19.963959 -47.535706 -9.443247 3.421565 -7.190957 10.352907 20.343159 6.579486 17.263702 -7.648076 43.786884 -8.740169 10.414298 103.317299 -5.557092 3.474256 -23.207575 14.159123 23.803730 10.203645 4.160056 4.673295 19.674381 -4.211021 21.585598 -17.679346 0.590568 -3.848639 15.640365 -13.650366 -11.898862 2.516830 4.202221 -4.795567 -3.288195 -0.331198 11.157979 
2.515314 48.998741 13.172917 -10.545662 -2.294605 -8.079151 0.000000 0.000000 0.000000 -1.338992 -2.323585 0.776908 -1.501679 -0.629436 -5.065225 15.761769 -0.213169 -4.460402 -2.778139 -17.317617 -7.544155 -50.476147 21.228994 20.603533 -47.453735 -9.595741 3.423458 -7.105378 10.552950 20.491207 7.727410 17.370455 -7.755876 45.666759 -15.103968 14.145526 96.787888 -5.159810 3.395091 -21.315826 13.002894 20.668560 9.959217 4.023145 4.215318 19.704178 -4.182013 21.422211 -17.645622 0.657805 -4.254163 14.636223 -14.031685 -12.068855 4.208130 4.304432 -4.558877 -3.922136 -0.413932 11.303865 
2.499582 48.978855 13.253218 -10.564784 -2.236858 -8.118394 0.000000 0.000000 0.000000 -1.407487 -2.401620 0.801127 -1.609712 -0.986212 -4.664698 15.957059 0.154965 -4.403804 -2.570631 -17.567387 -7.600671 -50.279572 22.145962 20.552008 -48.175125 -9.371408 3.424854 -7.364241 10.529716 20.108232 8.025512 17.391499 -7.810625 47.827541 -19.421486 17.027655 87.949753 -4.234379 3.297669 -15.250684 9.080064 20.716791 10.024306 3.973176 4.225332 19.919594 -4.270434 21.507866 -17.893957 0.660595 -4.165811 14.466733 -14.175554 -12.138367 4.831084 4.272783 -4.287669 -4.365537 -0.442176 11.381236 
2.531672 48.948402 13.287536 -10.924863 -2.023234 -8.789495 0.000000 0.000000 0.000000 -1.153324 -2.362803 1.141264 -1.484505 -1.628044 -3.849698 15.517755 0.407173 -4.569696 -1.667940 -17.945892 -7.216276 -50.347687 21.918198 20.610737 -48.347260 -9.325245 3.424109 -7.553255 10.461268 19.829985 8.784401 17.526085 -7.420056 49.207176 -21.744022 19.304266 77.308556 -2.408669 3.210101 -11.375359 7.379245 19.033817 10.454748 3.241257 3.689064 19.878038 -4.298003 22.823153 -18.021240 0.649451 -4.151126 14.227293 -14.921335 -12.731319 5.754720 4.259480 -2.910774 -4.721036 -0.473233 11.507394 
2.551054 48.925877 13.309506 -10.718793 -1.890286 -8.880731 0.000000 0.000000 0.000000 -1.182646 -2.362778 1.249894 -1.995521 -1.909555 -3.458987 15.850011 0.600633 -4.640327 -1.437313 -18.070271 -7.377635 -50.372837 21.974033 20.981146 -48.413616 -9.357182 3.422875 -7.556377 10.519784 19.654209 9.331123 18.115494 -7.657148 49.886524 -23.781424 21.045107 67.833221 -0.148893 3.170762 -7.780584 4.571228 15.739440 10.090885 3.085175 3.591464 20.100952 -4.378534 22.801451 -18.152676 0.654307 -4.049557 13.558848 -15.191483 -12.748918 6.488814 4.281212 -2.942209 -4.947235 -0.511837 11.583620 
2.596609 48.906750 13.379979 -10.954509 -2.070972 -8.642476 0.000000 0.000000 0.000000 -0.957692 -2.128609 1.207425 -1.991548 -1.899098 -3.357414 15.810660 0.319719 -4.656782 -1.261127 -17.725454 -7.045284 -50.940979 21.793119 21.386095 -47.997387 -9.547332 3.434540 -7.385752 10.391692 20.346319 9.539631 18.862595 -7.459126 50.557617 -25.784433 21.752245 60.326286 1.813245 3.163538 -5.133276 1.584237 18.157269 10.363597 3.270554 3.727332 20.139194 -4.270707 22.416336 -18.182957 0.691492 -4.295275 14.128136 -15.067146 -12.883746 6.263774 4.368333 -3.063247 -4.958150 -0.507726 11.617521 
2.602646 48.895672 13.426805 -11.366529 -2.278681 -8.517024 0.000000 0.000000 0.000000 -0.644925 -2.001826 1.038140 -1.658476 -1.796037 -3.333568 15.644544 0.106612 -4.381346 -1.359351 -17.900146 -6.526977 -50.737621 22.191290 21.557032 -48.201717 -9.616149 3.439471 -7.268553 10.182628 19.979610 9.217041 19.437414 -6.996037 51.733139 -27.218115 20.854277 54.032383 3.549337 3.165084 -0.635611 -1.774676 15.836338 10.975304 3.583848 4.147984 20.224375 -4.323724 22.079018 -18.375874 0.727002 -4.387736 14.739774 -14.878611 -12.868771 6.305963 4.459047 -3.027562 -5.200502 -0.529252 11.552952 
2.614856 48.886112 13.422200 -11.297741 -2.231344 -8.558591 0.000000 0.000000 0.000000 -0.576534 -2.031147 0.977453 -1.589445 -1.708661 -3.300960 15.332088 0.232761 -4.288906 -1.343887 -17.518826 -6.421672 -51.377865 22.370796 21.599976 -47.859211 -9.613432 3.432820 -6.624581 10.216303 21.370308 9.004599 19.122822 -6.886465 53.915920 -28.530642 20.127544 48.581669 4.928312 3.156718 -1.682927 -5.174766 14.156594 10.882838 3.553374 4.156794 20.263927 -4.382447 22.133575 -18.414854 0.709680 -4.375767 14.479378 -14.988992 -12.872668 6.654578 4.476276 -3.028837 -5.328279 -0.553325 11.557621 
2.619385 48.892399 13.420161 -11.210085 -2.270342 -8.603259 0.000000 0.000000 0.000000 -0.527685 -2.060460 0.907633 -1.490116 -1.530680 -3.463625 15.283269 0.252183 -4.257532 -1.475148 -17.584700 -6.353897 -51.377766 22.791357 21.546394 -47.740417 -9.623633 3.435559 -6.022135 9.954856 21.430704 8.706441 19.051529 -6.785257 55.579056 -30.130112 16.093767 45.743370 5.369214 3.135852 -4.490499 -5.488697 -5.315753 10.826869 3.730334 4.395161 20.503275 -4.610686 21.881163 -18.701761 0.647626 -4.002230 14.500130 -14.969374 -12.929715 6.493741 4.634967 -3.054970 -5.223106 -0.539068 11.453977 
2.709741 48.886490 13.354937 -11.041924 -1.993677 -8.947211 0.000000 0.000000 0.000000 -0.459328 -2.216726 0.965019 -1.501444 -1.714510 -3.443215 15.098413 0.873266 -4.451231 -1.379821 -17.769896 -6.252200 -51.402885 22.840078 21.380068 -47.713936 -9.590043 3.433318 -6.118856 10.135516 21.337091 8.744283 18.963051 -6.661983 57.431255 -31.219873 10.604978 43.998878 4.640219 3.074108 -3.429549 -3.992236 -7.565694 10.616740 3.241007 4.315370 20.383968 -4.603193 22.604015 -18.585388 0.670918 -3.998884 13.767042 -15.575127 -13.088223 7.234539 4.908665 -2.486498 -5.443078 -0.556262 11.315829 
